<svg xmlns="http://www.w3.org/2000/svg" width="240" height="240" viewBox="0 0 240 240" role="img" aria-labelledby="title desc">
    <title id="title">Minimal Scotland Map Logo</title>
    <desc id="desc">Simplified silhouette of Scotland inside a circular emblem.</desc>
    <circle cx="120" cy="120" r="108" fill="#f5f8fb" stroke="#1d3653" stroke-width="6"/>
    <g fill="#1d3653" stroke="#0a1b2d" stroke-width="4" stroke-linejoin="round">
        <path d="M110 44l20 14-6 20 18 8-8 24-22 16 10 18-26 12-16-16-10-28 12-18-10-12z"/>
        <path d="M146 92l18-4 10 16-14 16-18-2z"/>
        <path d="M84 98l-16 10-16-10 8-16z"/>
        <path d="M180 58l14-6 12 10-12 14-16-6z"/>
        <path d="M188 124l18-8 14 10-16 14-18-6z"/>
    </g>
    <g stroke="#1d3653" stroke-width="4" stroke-linecap="round">
        <line x1="120" y1="18" x2="120" y2="38"/>
        <line x1="120" y1="202" x2="120" y2="222"/>
        <line x1="18" y1="120" x2="38" y2="120"/>
        <line x1="202" y1="120" x2="222" y2="120"/>
    </g>
</svg>
